  0
SECTION
  2
HEADER
  9
$ACADVER
  1
AC1009
  9
$DWGCODEPAGE
  3
mac-roman
  9
$INSBASE
 10
0.0
 20
0.0
 30
0.0
  9
$EXTMIN
 10
-147.0897904855863
 20
-73.17814593315124
 30
-0.0000000083819041
  9
$EXTMAX
 10
82.5000030517578
 20
73.34293435570024
 30
73.34293435570024
  9
$LIMMIN
 10
0.0
 20
0.0
  9
$LIMMAX
 10
420.0
 20
297.0
  9
$ORTHOMODE
 70
     0
  9
$REGENMODE
 70
     1
  9
$FILLMODE
 70
     1
  9
$QTEXTMODE
 70
     0
  9
$MIRRTEXT
 70
     1
  9
$DRAGMODE
 70
     2
  9
$LTSCALE
 40
1.0
  9
$OSMODE
 70
    37
  9
$ATTMODE
 70
     1
  9
$TEXTSIZE
 40
2.5
  9
$TRACEWID
 40
1.0
  9
$TEXTSTYLE
  7
STANDARD
  9
$CLAYER
  8
0
  9
$CELTYPE
  6
BYLAYER
  9
$CECOLOR
 62
   256
  9
$DIMSCALE
 40
1.0
  9
$DIMASZ
 40
2.5
  9
$DIMEXO
 40
0.625
  9
$DIMDLI
 40
3.75
  9
$DIMRND
 40
0.0
  9
$DIMDLE
 40
0.0
  9
$DIMEXE
 40
1.25
  9
$DIMTP
 40
0.0
  9
$DIMTM
 40
0.0
  9
$DIMTXT
 40
2.5
  9
$DIMCEN
 40
2.5
  9
$DIMTSZ
 40
0.0
  9
$DIMTOL
 70
     0
  9
$DIMLIM
 70
     0
  9
$DIMTIH
 70
     0
  9
$DIMTOH
 70
     0
  9
$DIMSE1
 70
     0
  9
$DIMSE2
 70
     0
  9
$DIMTAD
 70
     1
  9
$DIMZIN
 70
     8
  9
$DIMBLK
  1

  9
$DIMASO
 70
     1
  9
$DIMSHO
 70
     1
  9
$DIMPOST
  1

  9
$DIMAPOST
  1

  9
$DIMALT
 70
     0
  9
$DIMALTD
 70
     3
  9
$DIMALTF
 40
0.03937007874016
  9
$DIMLFAC
 40
1.0
  9
$DIMTOFL
 70
     1
  9
$DIMTVP
 40
0.0
  9
$DIMTIX
 70
     0
  9
$DIMSOXD
 70
     0
  9
$DIMSAH
 70
     0
  9
$DIMBLK1
  1

  9
$DIMBLK2
  1

  9
$DIMSTYLE
  2
ISO-25
  9
$DIMCLRD
 70
     0
  9
$DIMCLRE
 70
     0
  9
$DIMCLRT
 70
     0
  9
$DIMTFAC
 40
1.0
  9
$DIMGAP
 40
0.625
  9
$LUNITS
 70
     2
  9
$LUPREC
 70
     4
  9
$SKETCHINC
 40
1.0
  9
$FILLETRAD
 40
10.0
  9
$AUNITS
 70
     0
  9
$AUPREC
 70
     0
  9
$MENU
  1
.
  9
$ELEVATION
 40
0.0
  9
$PELEVATION
 40
0.0
  9
$THICKNESS
 40
0.0
  9
$LIMCHECK
 70
     0
  9
$CHAMFERA
 40
0.0
  9
$CHAMFERB
 40
0.0
  9
$SKPOLY
 70
     0
  9
$TDCREATE
 40
1800585.747199074
  9
$TDUPDATE
 40
2458022.70553875
  9
$TDINDWG
 40
0.0000000116
  9
$TDUSRTIMER
 40
0.0000000116
  9
$USRTIMER
 70
     1
  9
$ANGBASE
 50
0.0
  9
$ANGDIR
 70
     0
  9
$PDMODE
 70
     0
  9
$PDSIZE
 40
0.0
  9
$PLINEWID
 40
0.0
  9
$COORDS
 70
     1
  9
$SPLFRAME
 70
     0
  9
$SPLINETYPE
 70
     6
  9
$SPLINESEGS
 70
     8
  9
$ATTDIA
 70
     0
  9
$ATTREQ
 70
     1
  9
$HANDLING
 70
     1
  9
$HANDSEED
  5
132
  9
$SURFTAB1
 70
     6
  9
$SURFTAB2
 70
     6
  9
$SURFTYPE
 70
     6
  9
$SURFU
 70
     6
  9
$SURFV
 70
     6
  9
$UCSNAME
  2

  9
$UCSORG
 10
0.0
 20
0.0
 30
0.0
  9
$UCSXDIR
 10
1.0
 20
0.0
 30
0.0
  9
$UCSYDIR
 10
0.0
 20
1.0
 30
0.0
  9
$PUCSNAME
  2

  9
$PUCSORG
 10
0.0
 20
0.0
 30
0.0
  9
$PUCSXDIR
 10
1.0
 20
0.0
 30
0.0
  9
$PUCSYDIR
 10
0.0
 20
1.0
 30
0.0
  9
$USERI1
 70
     0
  9
$USERI2
 70
     0
  9
$USERI3
 70
     0
  9
$USERI4
 70
     0
  9
$USERI5
 70
     0
  9
$USERR1
 40
0.0
  9
$USERR2
 40
0.0
  9
$USERR3
 40
0.0
  9
$USERR4
 40
0.0
  9
$USERR5
 40
0.0
  9
$WORLDVIEW
 70
     1
  9
$SHADEDGE
 70
     3
  9
$SHADEDIF
 70
    70
  9
$TILEMODE
 70
     1
  9
$MAXACTVP
 70
    64
  9
$PLIMCHECK
 70
     0
  9
$PEXTMIN
 10
1.000000000000000E+20
 20
1.000000000000000E+20
 30
1.000000000000000E+20
  9
$PEXTMAX
 10
-1.000000000000000E+20
 20
-1.000000000000000E+20
 30
-1.000000000000000E+20
  9
$PLIMMIN
 10
0.0
 20
0.0
  9
$PLIMMAX
 10
420.0
 20
297.0
  9
$UNITMODE
 70
     0
  9
$VISRETAIN
 70
     1
  9
$PLINEGEN
 70
     0
  9
$PSLTSCALE
 70
     1
  0
ENDSEC
  0
SECTION
  2
TABLES
  0
TABLE
  2
VPORT
 70
     1
  0
VPORT
  2
*ACTIVE
 70
     0
 10
0.0
 20
0.0
 11
1.0
 21
1.0
 12
344.1869158878504
 22
148.5
 13
0.0
 23
0.0
 14
10.0
 24
10.0
 15
10.0
 25
10.0
 16
0.0
 26
0.0
 36
1.0
 17
0.0
 27
0.0
 37
0.0
 40
297.0
 41
1.972972972850329
 42
50.0
 43
0.0
 44
0.0
 50
0.0
 51
0.0
 71
     0
 72
   100
 73
     1
 74
     3
 75
     0
 76
     0
 77
     0
 78
     0
  0
ENDTAB
  0
TABLE
  2
LTYPE
 70
    11
  0
LTYPE
  2
CONTINUOUS
 70
     0
  3
Solid line
 72
    65
 73
     0
 40
0.0
  0
LTYPE
  2
BORDER
 70
     0
  3
__ __ . __ __ . __ 
 72
    65
 73
     6
 40
0.875
 49
0.25
 49
-0.125
 49
0.25
 49
-0.125
 49
0.0
 49
-0.125
  0
LTYPE
  2
CENTER
 70
     0
  3
___ _ ___ _ ___ _ _
 72
    65
 73
     4
 40
1.125
 49
0.75
 49
-0.125
 49
0.125
 49
-0.125
  0
LTYPE
  2
DASHDOT
 70
     0
  3
_._._._._._._._._._
 72
    65
 73
     4
 40
0.5
 49
0.25
 49
-0.125
 49
0.0
 49
-0.125
  0
LTYPE
  2
DASHED
 70
     0
  3
_ _ _ _ _ _ _ _ _ _
 72
    65
 73
     2
 40
0.375
 49
0.25
 49
-0.125
  0
LTYPE
  2
DIVIDE
 70
     0
  3
__..__..__..__..__.
 72
    65
 73
     6
 40
0.625
 49
0.25
 49
-0.125
 49
0.0
 49
-0.125
 49
0.0
 49
-0.125
  0
LTYPE
  2
DOT
 70
     0
  3
...................
 72
    65
 73
     2
 40
0.125
 49
0.0
 49
-0.125
  0
LTYPE
  2
HIDDEN
 70
     0
  3
__ __ __ __ __ __ _
 72
    65
 73
     2
 40
0.1875
 49
0.125
 49
-0.0625
  0
LTYPE
  2
PHANTOM
 70
     0
  3
___ _ _ ___ _ _ ___
 72
    65
 73
     6
 40
1.25
 49
0.625
 49
-0.125
 49
0.125
 49
-0.125
 49
0.125
 49
-0.125
  0
LTYPE
  2
CUTTING
 70
     0
  3
________ _ _ ______
 72
    65
 73
     6
 40
1.4675
 49
1.0
 49
-0.0725
 49
0.125
 49
-0.0725
 49
0.125
 49
-0.0725
  0
LTYPE
  2
STITCH
 70
     0
  3
_ _ _ _ _ _ _ _ _ _
 72
    65
 73
     2
 40
0.145
 49
0.0725
 49
-0.0725
  0
ENDTAB
  0
TABLE
  2
LAYER
 70
     4
  0
LAYER
  2
0
 70
     0
 62
     7
  6
CONTINUOUS
  0
LAYER
  2
CONSTRUCTION
 70
     0
 62
   -14
  6
CONTINUOUS
  0
LAYER
  2
DIMENSION
 70
     0
 62
    -7
  6
CONTINUOUS
  0
LAYER
  2
LAYER1
 70
     0
 62
     7
  6
CONTINUOUS
  0
ENDTAB
  0
TABLE
  2
STYLE
 70
     1
  0
STYLE
  2
STANDARD
 70
     0
 40
0.0
 41
1.0
 50
0.0
 71
     0
 42
2.5
  3
txt
  4

  0
ENDTAB
  0
TABLE
  2
VIEW
 70
     0
  0
ENDTAB
  0
TABLE
  2
UCS
 70
     0
  0
ENDTAB
  0
TABLE
  2
APPID
 70
     2
  0
APPID
  2
ACAD
 70
     0
  0
APPID
  2
ENCORE_SOFTWARE_VIACAD
 70
     0
  0
ENDTAB
  0
TABLE
  2
DIMSTYLE
 70
     1
  0
DIMSTYLE
  2
ISO-25
 70
     0
  3

  4

  5

  6

  7

 40
1.0
 41
2.5
 42
0.625
 43
3.75
 44
1.25
 45
0.0
 46
0.0
 47
0.0
 48
0.0
140
2.5
141
2.5
142
0.0
143
0.03937007874016
144
1.0
145
0.0
146
1.0
147
0.625
 71
     0
 72
     0
 73
     0
 74
     0
 75
     0
 76
     0
 77
     1
 78
     8
170
     0
171
     3
172
     1
173
     0
174
     0
175
     0
176
     0
177
     0
178
     0
  0
ENDTAB
  0
ENDSEC
  0
SECTION
  2
BLOCKS
  0
BLOCK
  8
0
  2
$MODEL_SPACE
 70
     0
 10
0.0
 20
0.0
 30
0.0
  3
$MODEL_SPACE
  1

  0
ENDBLK
  5
21
  8
0
  0
BLOCK
 67
     1
  8
0
  2
$PAPER_SPACE
 70
     0
 10
0.0
 20
0.0
 30
0.0
  3
$PAPER_SPACE
  1

  0
ENDBLK
  5
1D
 67
     1
  8
0
  0
ENDSEC
  0
SECTION
  2
ENTITIES
  0
CIRCLE
  5
7C
  8
LAYER1
 62
   178
 10
-76.28400360479951
 20
-43.03399902120233
 30
0.0000000027939674
 40
1.600000000000001
  0
CIRCLE
  5
7D
  8
LAYER1
 62
   178
 10
13.88599639520048
 20
-43.03399902120233
 30
0.0000000027939674
 40
1.600000000000003
  0
CIRCLE
  5
7E
  8
LAYER1
 62
   178
 10
-76.2840036047995
 20
23.00600097879765
 30
0.0000000027939674
 40
1.600000000000003
  0
CIRCLE
  5
7F
  8
LAYER1
 62
   178
 10
13.88599639520064
 20
23.00600097879765
 30
0.0000000027939674
 40
1.600000000000003
  0
CIRCLE
  5
80
  8
LAYER1
 62
   178
 10
-27.38900360479948
 20
-37.95399902120233
 30
0.0000000027939674
 40
3.175
  0
CIRCLE
  5
81
  8
LAYER1
 62
   178
 10
-17.22900360479951
 20
-37.95399902120233
 30
0.0000000027939674
 40
3.175
  0
CIRCLE
  5
82
  8
LAYER1
 62
   178
 10
-7.069003604799504
 20
-37.95399902120233
 30
0.0000000027939674
 40
3.175
  0
CIRCLE
  5
83
  8
LAYER1
 62
   178
 10
3.090996395200504
 20
-37.95399902120233
 30
0.0000000027939674
 40
3.175
  0
POLYLINE
  5
84
  8
LAYER1
 62
   178
 10
0.0
 20
0.0
 30
0.0
 66
     1
 70
     8
  0
VERTEX
  5
85
  8
LAYER1
 62
   178
 10
-73.74400329589844
 20
14.43350124359131
 30
0.0000000027939675
 70
    32
  0
VERTEX
  5
86
  8
LAYER1
 62
   178
 10
-73.74400329589844
 20
18.87850189208984
 30
0.0000000027939675
 70
    32
  0
VERTEX
  5
87
  8
LAYER1
 62
   178
 10
-65.61600494384766
 20
18.87850189208984
 30
0.0000000027939675
 70
    32
  0
VERTEX
  5
88
  8
LAYER1
 62
   178
 10
-65.61600494384766
 20
14.43350124359131
 30
0.0000000027939675
 70
    32
  0
VERTEX
  5
89
  8
LAYER1
 62
   178
 10
-73.74400329589844
 20
14.43350124359131
 30
0.0000000027939675
 70
    32
  0
SEQEND
  5
8A
  8
LAYER1
 62
   178
  0
POLYLINE
  5
8B
  8
LAYER1
 62
   178
 10
0.0
 20
0.0
 30
0.0
 66
     1
 70
     8
  0
VERTEX
  5
8C
  8
LAYER1
 62
   178
 10
-59.77400207519531
 20
14.43349933624268
 30
0.0000000027939675
 70
    32
  0
VERTEX
  5
8D
  8
LAYER1
 62
   178
 10
-59.77400207519531
 20
18.87849998474121
 30
0.0000000027939675
 70
    32
  0
VERTEX
  5
8E
  8
LAYER1
 62
   178
 10
-51.64600372314453
 20
18.87849998474121
 30
0.0000000027939675
 70
    32
  0
VERTEX
  5
8F
  8
LAYER1
 62
   178
 10
-51.64600372314453
 20
14.43349933624268
 30
0.0000000027939675
 70
    32
  0
VERTEX
  5
90
  8
LAYER1
 62
   178
 10
-59.77400207519531
 20
14.43349933624268
 30
0.0000000027939675
 70
    32
  0
SEQEND
  5
91
  8
LAYER1
 62
   178
  0
POLYLINE
  5
92
  8
LAYER1
 62
   178
 10
0.0
 20
0.0
 30
0.0
 66
     1
 70
     8
  0
VERTEX
  5
93
  8
LAYER1
 62
   178
 10
-73.74400329589844
 20
-7.156498908996582
 30
0.0000000027939675
 70
    32
  0
VERTEX
  5
94
  8
LAYER1
 62
   178
 10
-73.74400329589844
 20
-2.711498975753784
 30
0.0000000027939675
 70
    32
  0
VERTEX
  5
95
  8
LAYER1
 62
   178
 10
-65.61600494384766
 20
-2.711498975753784
 30
0.0000000027939675
 70
    32
  0
VERTEX
  5
96
  8
LAYER1
 62
   178
 10
-65.61600494384766
 20
-7.156498908996582
 30
0.0000000027939675
 70
    32
  0
VERTEX
  5
97
  8
LAYER1
 62
   178
 10
-73.74400329589844
 20
-7.156498908996582
 30
0.0000000027939675
 70
    32
  0
SEQEND
  5
98
  8
LAYER1
 62
   178
  0
POLYLINE
  5
99
  8
LAYER1
 62
   178
 10
0.0
 20
0.0
 30
0.0
 66
     1
 70
     8
  0
VERTEX
  5
9A
  8
LAYER1
 62
   178
 10
-59.77400207519531
 20
-7.156497955322266
 30
0.0000000027939675
 70
    32
  0
VERTEX
  5
9B
  8
LAYER1
 62
   178
 10
-59.77400207519531
 20
-2.711498022079468
 30
0.0000000027939675
 70
    32
  0
VERTEX
  5
9C
  8
LAYER1
 62
   178
 10
-51.64600372314453
 20
-2.711498022079468
 30
0.0000000027939675
 70
    32
  0
VERTEX
  5
9D
  8
LAYER1
 62
   178
 10
-51.64600372314453
 20
-7.156497955322266
 30
0.0000000027939675
 70
    32
  0
VERTEX
  5
9E
  8
LAYER1
 62
   178
 10
-59.77400207519531
 20
-7.156497955322266
 30
0.0000000027939675
 70
    32
  0
SEQEND
  5
9F
  8
LAYER1
 62
   178
  0
POLYLINE
  5
A0
  8
LAYER1
 62
   178
 10
0.0
 20
0.0
 30
0.0
 66
     1
 70
     8
  0
VERTEX
  5
A1
  8
LAYER1
 62
   178
 10
-73.74400329589844
 20
-33.82649993896484
 30
0.0000000027939675
 70
    32
  0
VERTEX
  5
A2
  8
LAYER1
 62
   178
 10
-73.74400329589844
 20
-29.38149833679199
 30
0.0000000027939675
 70
    32
  0
VERTEX
  5
A3
  8
LAYER1
 62
   178
 10
-65.61600494384766
 20
-29.38149833679199
 30
0.0000000027939675
 70
    32
  0
VERTEX
  5
A4
  8
LAYER1
 62
   178
 10
-65.61600494384766
 20
-33.82649993896484
 30
0.0000000027939675
 70
    32
  0
VERTEX
  5
A5
  8
LAYER1
 62
   178
 10
-73.74400329589844
 20
-33.82649993896484
 30
0.0000000027939675
 70
    32
  0
SEQEND
  5
A6
  8
LAYER1
 62
   178
  0
POLYLINE
  5
A7
  8
LAYER1
 62
   178
 10
0.0
 20
0.0
 30
0.0
 66
     1
 70
     8
  0
VERTEX
  5
A8
  8
LAYER1
 62
   178
 10
-59.77400207519531
 20
-33.82649993896484
 30
0.0000000027939675
 70
    32
  0
VERTEX
  5
A9
  8
LAYER1
 62
   178
 10
-59.77400207519531
 20
-29.38150024414062
 30
0.0000000027939675
 70
    32
  0
VERTEX
  5
AA
  8
LAYER1
 62
   178
 10
-51.64600372314453
 20
-29.38150024414062
 30
0.0000000027939675
 70
    32
  0
VERTEX
  5
AB
  8
LAYER1
 62
   178
 10
-51.64600372314453
 20
-33.82649993896484
 30
0.0000000027939675
 70
    32
  0
VERTEX
  5
AC
  8
LAYER1
 62
   178
 10
-59.77400207519531
 20
-33.82649993896484
 30
0.0000000027939675
 70
    32
  0
SEQEND
  5
AD
  8
LAYER1
 62
   178
  0
POLYLINE
  5
AE
  8
LAYER1
 62
   178
 10
0.0
 20
0.0
 30
0.0
 66
     1
 70
     8
  0
VERTEX
  5
AF
  8
LAYER1
 62
   178
 10
-8.593003273010254
 20
14.62400054931641
 30
0.0000000027939671
 70
    32
  0
VERTEX
  5
B0
  8
LAYER1
 62
   178
 10
-8.593003273010254
 20
19.70400047302246
 30
0.0000000027939671
 70
    32
  0
VERTEX
  5
B1
  8
LAYER1
 62
   178
 10
-4.275003433227539
 20
19.70400047302246
 30
0.0000000027939671
 70
    32
  0
VERTEX
  5
B2
  8
LAYER1
 62
   178
 10
-4.275003433227539
 20
14.62400054931641
 30
0.0000000027939671
 70
    32
  0
VERTEX
  5
B3
  8
LAYER1
 62
   178
 10
-8.593003273010254
 20
14.62400054931641
 30
0.0000000027939671
 70
    32
  0
SEQEND
  5
B4
  8
LAYER1
 62
   178
  0
POLYLINE
  5
B5
  8
LAYER1
 62
   178
 10
0.0
 20
0.0
 30
0.0
 66
     1
 70
     8
  0
VERTEX
  5
B6
  8
LAYER1
 62
   178
 10
-82.5
 20
-48.89566802978516
 30
0.0000000027939677
 70
    32
  0
VERTEX
  5
B7
  8
LAYER1
 62
   178
 10
-82.49111938476562
 20
-48.97451400756836
 30
0.0000000027939677
 70
    32
  0
VERTEX
  5
B8
  8
LAYER1
 62
   178
 10
-82.46491241455078
 20
-49.04940795898438
 30
0.0000000027939677
 70
    32
  0
VERTEX
  5
B9
  8
LAYER1
 62
   178
 10
-82.42269897460938
 20
-49.11659240722656
 30
0.0000000027939677
 70
    32
  0
VERTEX
  5
BA
  8
LAYER1
 62
   178
 10
-82.36659240722656
 20
-49.17269515991211
 30
0.0000000027939677
 70
    32
  0
VERTEX
  5
BB
  8
LAYER1
 62
   178
 10
-82.29940795898438
 20
-49.21490859985352
 30
0.0000000027939677
 70
    32
  0
VERTEX
  5
BC
  8
LAYER1
 62
   178
 10
-82.22451782226562
 20
-49.24111557006836
 30
0.0000000027939677
 70
    32
  0
VERTEX
  5
BD
  8
LAYER1
 62
   178
 10
-82.14566802978516
 20
-49.25
 30
0.0000000027939677
 70
    32
  0
VERTEX
  5
BE
  8
LAYER1
 62
   178
 10
82.14566802978516
 20
-49.25
 30
0.0000000027939677
 70
    32
  0
VERTEX
  5
BF
  8
LAYER1
 62
   178
 10
82.22451782226562
 20
-49.24111557006836
 30
0.0000000027939677
 70
    32
  0
VERTEX
  5
C0
  8
LAYER1
 62
   178
 10
82.29940795898438
 20
-49.21490859985352
 30
0.0000000027939677
 70
    32
  0
VERTEX
  5
C1
  8
LAYER1
 62
   178
 10
82.36659240722656
 20
-49.17269515991211
 30
0.0000000027939677
 70
    32
  0
VERTEX
  5
C2
  8
LAYER1
 62
   178
 10
82.42269897460938
 20
-49.11659240722656
 30
0.0000000027939677
 70
    32
  0
VERTEX
  5
C3
  8
LAYER1
 62
   178
 10
82.46491241455078
 20
-49.04940795898438
 30
0.0000000027939677
 70
    32
  0
VERTEX
  5
C4
  8
LAYER1
 62
   178
 10
82.49111938476562
 20
-48.97451400756836
 30
0.0000000027939677
 70
    32
  0
VERTEX
  5
C5
  8
LAYER1
 62
   178
 10
82.5
 20
-48.89566802978516
 30
0.0000000027939677
 70
    32
  0
VERTEX
  5
C6
  8
LAYER1
 62
   178
 10
82.5
 20
48.89566802978516
 30
0.0000000027939677
 70
    32
  0
VERTEX
  5
C7
  8
LAYER1
 62
   178
 10
82.49111938476562
 20
48.97451400756836
 30
0.0000000027939677
 70
    32
  0
VERTEX
  5
C8
  8
LAYER1
 62
   178
 10
82.46491241455078
 20
49.04940795898438
 30
0.0000000027939677
 70
    32
  0
VERTEX
  5
C9
  8
LAYER1
 62
   178
 10
82.42269897460938
 20
49.11659240722656
 30
0.0000000027939677
 70
    32
  0
VERTEX
  5
CA
  8
LAYER1
 62
   178
 10
82.36659240722656
 20
49.17269515991211
 30
0.0000000027939677
 70
    32
  0
VERTEX
  5
CB
  8
LAYER1
 62
   178
 10
82.29940795898438
 20
49.21491241455078
 30
0.0000000027939677
 70
    32
  0
VERTEX
  5
CC
  8
LAYER1
 62
   178
 10
82.22451782226562
 20
49.24111557006836
 30
0.0000000027939677
 70
    32
  0
VERTEX
  5
CD
  8
LAYER1
 62
   178
 10
82.14566802978516
 20
49.25
 30
0.0000000027939677
 70
    32
  0
VERTEX
  5
CE
  8
LAYER1
 62
   178
 10
-82.14566802978516
 20
49.25
 30
0.0000000027939677
 70
    32
  0
VERTEX
  5
CF
  8
LAYER1
 62
   178
 10
-82.22451782226562
 20
49.24111557006836
 30
0.0000000027939677
 70
    32
  0
VERTEX
  5
D0
  8
LAYER1
 62
   178
 10
-82.29940795898438
 20
49.21491241455078
 30
0.0000000027939677
 70
    32
  0
VERTEX
  5
D1
  8
LAYER1
 62
   178
 10
-82.36659240722656
 20
49.17269515991211
 30
0.0000000027939677
 70
    32
  0
VERTEX
  5
D2
  8
LAYER1
 62
   178
 10
-82.42269897460938
 20
49.11659240722656
 30
0.0000000027939677
 70
    32
  0
VERTEX
  5
D3
  8
LAYER1
 62
   178
 10
-82.46491241455078
 20
49.04940795898438
 30
0.0000000027939677
 70
    32
  0
VERTEX
  5
D4
  8
LAYER1
 62
   178
 10
-82.49111938476562
 20
48.97451400756836
 30
0.0000000027939677
 70
    32
  0
VERTEX
  5
D5
  8
LAYER1
 62
   178
 10
-82.5
 20
48.89566802978516
 30
0.0000000027939677
 70
    32
  0
VERTEX
  5
D6
  8
LAYER1
 62
   178
 10
-82.5
 20
-48.89566802978516
 30
0.0000000027939677
 70
    32
  0
SEQEND
  5
D7
  8
LAYER1
 62
   178
  0
LINE
  5
D8
  8
LAYER1
 62
   178
 10
-65.43112030508314
 20
37.0298174987077
 30
-0.0000000083819038
 11
-65.43112030508314
 21
40.01310427674296
 31
-0.0000000083819038
  0
LINE
  5
D9
  8
LAYER1
 62
   178
 10
-65.43112030508314
 20
37.0298174987077
 30
-0.0000000083819038
 11
-65.43112030508314
 21
34.04653072067244
 31
-0.0000000083819038
  0
ARC
  5
DA
  8
LAYER1
 62
   178
 10
-61.48112030508312
 20
37.0298174987077
 30
-0.0000000083819038
 40
4.950000000000016
 50
217.0623819919265
 51
142.9376180080731
  0
CIRCLE
  5
DB
  8
LAYER1
 62
   178
 10
-76.27846763367421
 20
42.96593934027437
 30
0.0000000027939667
 40
1.600000000000001
  0
CIRCLE
  5
DC
  8
LAYER1
 62
   178
 10
-39.91729737800179
 20
29.45481611453564
 30
-0.0000000083819038
 40
1.600000000000001
  0
CIRCLE
  5
DD
  8
LAYER1
 62
   178
 10
-39.91729737800179
 20
34.49481611453563
 30
-0.0000000083819038
 40
1.600000000000001
  0
CIRCLE
  5
DE
  8
LAYER1
 62
   178
 10
-39.91729769298622
 20
39.55837205376582
 30
-0.0000000083819038
 40
1.600000000000001
  0
CIRCLE
  5
DF
  8
LAYER1
 62
   178
 10
-39.91729769298622
 20
44.59837205376581
 30
-0.0000000083819038
 40
1.600000000000001
  0
CIRCLE
  5
E0
  8
LAYER1
 62
   178
 10
-48.13654219148396
 20
42.96593934027437
 30
0.0000000027939674
 40
1.600000000000001
  0
CIRCLE
  5
E1
  8
LAYER1
 62
   178
 10
-24.91174476919527
 20
37.02981993941867
 30
-0.0000000083819035
 40
3.8
  0
CIRCLE
  5
E2
  8
LAYER1
 62
   178
 10
1.463294348620217
 20
37.02981314168486
 30
-0.0000000083819035
 40
3.3
  0
CIRCLE
  5
E3
  8
LAYER1
 62
   178
 10
47.27631035107736
 20
37.02981777704485
 30
-0.0000000083819035
 40
3.8
  0
LINE
  5
E4
  8
LAYER1
 62
   178
 10
74.35456148710391
 20
37.02981399117627
 30
0.0
 11
74.35456148710391
 21
39.5097333447037
 31
0.0
  0
LINE
  5
E5
  8
LAYER1
 62
   178
 10
74.35456148710391
 20
37.02981399117627
 30
0.0
 11
74.35456148710391
 21
34.5498946376488
 31
0.0
  0
LINE
  5
E6
  8
LAYER1
 62
   178
 10
62.55456148710389
 20
37.02981399117627
 30
0.0
 11
62.55456148710389
 21
39.5097333447037
 31
0.0
  0
LINE
  5
E7
  8
LAYER1
 62
   178
 10
62.55456148710389
 20
37.02981399117627
 30
0.0
 11
62.55456148710389
 21
34.5498946376488
 31
0.0
  0
ARC
  5
E8
  8
LAYER1
 62
   178
 10
68.45456148710389
 20
37.02981399117627
 30
0.0
 40
6.399999999999991
 50
22.79824809972192
 51
157.2017519002781
  0
ARC
  5
E9
  8
LAYER1
 62
   178
 10
68.45456148710389
 20
37.02981399117627
 30
0.0
 40
6.400000000000007
 50
202.7982480997222
 51
337.2017519002778
  0
LINE
  5
EA
  8
LAYER1
 62
   178
 10
74.34481781131447
 20
18.40214817448465
 30
0.0
 11
74.34481781131447
 21
20.88206752801208
 31
0.0
  0
LINE
  5
EB
  8
LAYER1
 62
   178
 10
74.34481781131447
 20
18.40214817448465
 30
0.0
 11
74.34481781131447
 21
15.92222882095718
 31
0.0
  0
LINE
  5
EC
  8
LAYER1
 62
   178
 10
62.54481781131445
 20
18.40214817448465
 30
0.0
 11
62.54481781131445
 21
20.88206752801208
 31
0.0
  0
LINE
  5
ED
  8
LAYER1
 62
   178
 10
62.54481781131445
 20
18.40214817448465
 30
0.0
 11
62.54481781131445
 21
15.92222882095718
 31
0.0
  0
ARC
  5
EE
  8
LAYER1
 62
   178
 10
68.44481781131445
 20
18.40214817448465
 30
0.0
 40
6.39999999999999
 50
22.79824809972187
 51
157.2017519002782
  0
ARC
  5
EF
  8
LAYER1
 62
   178
 10
68.44481781131445
 20
18.40214817448465
 30
0.0
 40
6.400000000000008
 50
202.7982480997222
 51
337.2017519002776
  0
CIRCLE
  5
F0
  8
LAYER1
 62
   178
 10
76.30853630174656
 20
27.79073566439823
 30
-0.0000000083819038
 40
1.600000000000001
  0
CIRCLE
  5
F1
  8
LAYER1
 62
   178
 10
76.30853630174656
 20
-43.03399902120233
 30
0.0000000027939674
 40
1.600000000000001
  0
CIRCLE
  5
F2
  8
LAYER1
 62
   178
 10
12.98653445916373
 20
41.71593972153819
 30
0.0000000111758705
 40
3.200000000000001
  0
CIRCLE
  5
F3
  8
LAYER1
 62
   178
 10
12.98653072752023
 20
33.10236292847059
 30
-0.0000000083819038
 40
3.200000000000001
  0
CIRCLE
  5
F4
  8
LAYER1
 62
   178
 10
-12.42439755104519
 20
28.03790848275749
 30
-0.0000000083819038
 40
1.600000000000001
  0
CIRCLE
  5
F5
  8
LAYER1
 62
   178
 10
-7.344397551045185
 20
28.03790848275749
 30
-0.0000000083819038
 40
1.600000000000001
  0
CIRCLE
  5
F6
  8
LAYER1
 62
   178
 10
1.463294306769612
 20
28.03790696879951
 30
-0.0000000083819038
 40
1.600000000000001
  0
CIRCLE
  5
F7
  8
LAYER1
 62
   178
 10
25.75239518401671
 20
21.1709201807718
 30
-0.0000000083819034
 40
0.9999999999999981
  0
CIRCLE
  5
F8
  8
LAYER1
 62
   178
 10
29.7523871840167
 20
21.1709201807718
 30
-0.0000000083819034
 40
0.9999999999999981
  0
CIRCLE
  5
F9
  8
LAYER1
 62
   178
 10
33.75237918401672
 20
21.1709201807718
 30
-0.0000000083819034
 40
0.9999999999999981
  0
CIRCLE
  5
FA
  8
LAYER1
 62
   178
 10
37.7523711840167
 20
21.1709201807718
 30
-0.0000000083819034
 40
0.9999999999999981
  0
CIRCLE
  5
FB
  8
LAYER1
 62
   178
 10
25.75239518401671
 20
25.17091218077181
 30
-0.0000000083819034
 40
0.9999999999999981
  0
CIRCLE
  5
FC
  8
LAYER1
 62
   178
 10
29.7523871840167
 20
25.17091218077181
 30
-0.0000000083819034
 40
0.9999999999999981
  0
CIRCLE
  5
FD
  8
LAYER1
 62
   178
 10
33.75237918401672
 20
25.17091218077181
 30
-0.0000000083819034
 40
0.9999999999999981
  0
CIRCLE
  5
FE
  8
LAYER1
 62
   178
 10
37.7523711840167
 20
25.17091218077181
 30
-0.0000000083819034
 40
0.9999999999999981
  0
CIRCLE
  5
FF
  8
LAYER1
 62
   178
 10
25.75239518401671
 20
29.1709041807718
 30
-0.0000000083819034
 40
0.9999999999999981
  0
CIRCLE
  5
100
  8
LAYER1
 62
   178
 10
29.7523871840167
 20
29.1709041807718
 30
-0.0000000083819034
 40
0.9999999999999981
  0
CIRCLE
  5
101
  8
LAYER1
 62
   178
 10
33.75237918401672
 20
29.1709041807718
 30
-0.0000000083819034
 40
0.9999999999999981
  0
CIRCLE
  5
102
  8
LAYER1
 62
   178
 10
37.7523711840167
 20
29.1709041807718
 30
-0.0000000083819034
 40
0.9999999999999981
  0
CIRCLE
  5
103
  8
LAYER1
 62
   178
 10
25.75239518401671
 20
33.17089618077181
 30
-0.0000000083819034
 40
0.9999999999999981
  0
CIRCLE
  5
104
  8
LAYER1
 62
   178
 10
29.7523871840167
 20
33.17089618077181
 30
-0.0000000083819034
 40
0.9999999999999981
  0
CIRCLE
  5
105
  8
LAYER1
 62
   178
 10
33.75237918401672
 20
33.17089618077181
 30
-0.0000000083819034
 40
0.9999999999999981
  0
CIRCLE
  5
106
  8
LAYER1
 62
   178
 10
37.7523711840167
 20
33.17089618077181
 30
-0.0000000083819034
 40
0.9999999999999981
  0
CIRCLE
  5
107
  8
LAYER1
 62
   178
 10
25.75239518401671
 20
37.1708881807718
 30
-0.0000000083819034
 40
0.9999999999999981
  0
CIRCLE
  5
108
  8
LAYER1
 62
   178
 10
29.7523871840167
 20
37.1708881807718
 30
-0.0000000083819034
 40
0.9999999999999981
  0
CIRCLE
  5
109
  8
LAYER1
 62
   178
 10
33.75237918401672
 20
37.1708881807718
 30
-0.0000000083819034
 40
0.9999999999999981
  0
CIRCLE
  5
10A
  8
LAYER1
 62
   178
 10
37.7523711840167
 20
37.1708881807718
 30
-0.0000000083819034
 40
0.9999999999999981
  0
CIRCLE
  5
10B
  8
LAYER1
 62
   178
 10
27.75198880066267
 20
19.17066881737223
 30
-0.0000000083819034
 40
0.9999999999999981
  0
CIRCLE
  5
10C
  8
LAYER1
 62
   178
 10
31.75198080066265
 20
19.17066881737223
 30
-0.0000000083819034
 40
0.9999999999999981
  0
CIRCLE
  5
10D
  8
LAYER1
 62
   178
 10
35.75197280066267
 20
19.17066881737223
 30
-0.0000000083819034
 40
0.9999999999999981
  0
CIRCLE
  5
10E
  8
LAYER1
 62
   178
 10
27.75198880066267
 20
23.17066081737222
 30
-0.0000000083819034
 40
0.9999999999999981
  0
CIRCLE
  5
10F
  8
LAYER1
 62
   178
 10
31.75198080066265
 20
23.17066081737222
 30
-0.0000000083819034
 40
0.9999999999999981
  0
CIRCLE
  5
110
  8
LAYER1
 62
   178
 10
35.75197280066267
 20
23.17066081737222
 30
-0.0000000083819034
 40
0.9999999999999981
  0
CIRCLE
  5
111
  8
LAYER1
 62
   178
 10
27.75198880066267
 20
27.17065281737223
 30
-0.0000000083819034
 40
0.9999999999999981
  0
CIRCLE
  5
112
  8
LAYER1
 62
   178
 10
31.75198080066265
 20
27.17065281737223
 30
-0.0000000083819034
 40
0.9999999999999981
  0
CIRCLE
  5
113
  8
LAYER1
 62
   178
 10
35.75197280066267
 20
27.17065281737223
 30
-0.0000000083819034
 40
0.9999999999999981
  0
CIRCLE
  5
114
  8
LAYER1
 62
   178
 10
27.75198880066267
 20
31.17064481737222
 30
-0.0000000083819034
 40
0.9999999999999981
  0
CIRCLE
  5
115
  8
LAYER1
 62
   178
 10
31.75198080066265
 20
31.17064481737222
 30
-0.0000000083819034
 40
0.9999999999999981
  0
CIRCLE
  5
116
  8
LAYER1
 62
   178
 10
35.75197280066267
 20
31.17064481737222
 30
-0.0000000083819034
 40
0.9999999999999981
  0
CIRCLE
  5
117
  8
LAYER1
 62
   178
 10
27.75198880066267
 20
35.17063681737223
 30
-0.0000000083819034
 40
0.9999999999999981
  0
CIRCLE
  5
118
  8
LAYER1
 62
   178
 10
31.75198080066265
 20
35.17063681737223
 30
-0.0000000083819034
 40
0.9999999999999981
  0
CIRCLE
  5
119
  8
LAYER1
 62
   178
 10
35.75197280066267
 20
35.17063681737223
 30
-0.0000000083819034
 40
0.9999999999999981
  0
CIRCLE
  5
11A
  8
LAYER1
 62
   178
 10
27.75198880066267
 20
39.17062881737223
 30
-0.0000000083819034
 40
0.9999999999999981
  0
CIRCLE
  5
11B
  8
LAYER1
 62
   178
 10
31.75198080066265
 20
39.17062881737223
 30
-0.0000000083819034
 40
0.9999999999999981
  0
CIRCLE
  5
11C
  8
LAYER1
 62
   178
 10
35.75197280066267
 20
39.17062881737223
 30
-0.0000000083819034
 40
0.9999999999999981
  0
POINT
  5
11D
  8
LAYER1
 62
   178
 10
-0.0000019870698452
 20
0.0000010408461094
 30
0.0000000027939679
  0
POLYLINE
  5
11E
  8
LAYER1
 62
   178
 10
0.0
 20
0.0
 30
0.0
 66
     1
 70
     8
  0
VERTEX
  5
11F
  8
LAYER1
 62
   178
 10
-32.15700531005859
 20
-23.5
 30
0.0000000027939671
 70
    32
  0
VERTEX
  5
120
  8
LAYER1
 62
   178
 10
-32.15700531005859
 20
-8.5
 30
0.0000000027939671
 70
    32
  0
VERTEX
  5
121
  8
LAYER1
 62
   178
 10
6.842996597290039
 20
-8.5
 30
0.0000000027939671
 70
    32
  0
VERTEX
  5
122
  8
LAYER1
 62
   178
 10
6.842996597290039
 20
-23.5
 30
0.0000000027939671
 70
    32
  0
VERTEX
  5
123
  8
LAYER1
 62
   178
 10
-32.15700531005859
 20
-23.5
 30
0.0000000027939671
 70
    32
  0
SEQEND
  5
124
  8
LAYER1
 62
   178
  0
CIRCLE
  5
125
  8
LAYER1
 62
   178
 10
-9.884397513665732
 20
37.02981532019626
 30
-0.0000000083819035
 40
3.300000000000001
  0
POINT
  5
126
  8
LAYER1
 62
   178
 10
-0.0000019870698452
 20
0.0000010408461094
 30
0.0000000027939679
  0
ENDSEC
  0
EOF
